<?xml version="1.0" standalone="no"?>
<!DOCTYPE svg PUBLIC "-//W3C//DTD SVG 1.1//EN" "http://www.w3.org/Graphics/SVG/1.1/DTD/svg11.dtd" >
<svg xmlns="http://www.w3.org/2000/svg">
<metadata>Generated by IcoMoon</metadata>
<defs>
<font id="icomoon" horiz-adv-x="512">
<font-face units-per-em="512" ascent="480" descent="-32" />
<missing-glyph horiz-adv-x="512" />
<glyph unicode="&#x20;" d="" horiz-adv-x="256" />
<glyph unicode="&#xe000;" d="M132.040 187.31c-6.854 6.863-6.834 18.118 0.029 24.972l44.104 44.113c6.863 6.863 18.099 6.863 24.972 0.010l71.623-71.47c6.863-6.852 18.099-6.843 24.953 0.020l196.298 196.762c6.854 6.873 18.090 6.902 24.982 0.058l43.882-43.573c6.881-6.843 6.91-18.050 0.058-24.923l-238.038-238.607c-6.863-6.873-20.406-12.491-30.117-12.491h-20.56c-9.711 0-23.245 5.637-30.097 12.501l-112.089 112.628z" horiz-adv-x="695" />
<glyph unicode="&#xe001;" d="M322.361 290.382v168.285h-132.757v-168.285h-168.271v-132.743h168.271v-168.27h132.757v168.27l168.263-0.007v132.75h-168.263z" />
<glyph unicode="&#xe002;" d="M512 46.798l-150.919 150.898c14.414 26.944 22.613 57.707 22.613 90.396 0 105.991-85.916 191.908-191.908 191.908-105.984 0-191.908-85.916-191.908-191.908 0-105.97 85.924-191.9 191.908-191.9 32.249 0 62.62 7.986 89.294 22.044l151.175-151.182 79.745 79.744zM63.879 288.085c0 70.528 57.38 127.908 127.908 127.908s127.908-57.38 127.908-127.908c0-70.528-57.372-127.9-127.908-127.9s-127.908 57.372-127.908 127.9z" />
<glyph unicode="&#xe003;" d="M79.218-32.541l150.898 150.919c26.944-14.414 57.707-22.62 90.396-22.62 105.991 0 191.908 85.916 191.908 191.9s-85.917 191.922-191.915 191.922c-105.977 0-191.9-85.924-191.9-191.908 0-32.249 7.986-62.613 22.044-89.287l-151.182-151.175 79.751-79.751zM320.505 415.58c70.528 0 127.908-57.38 127.908-127.908s-57.38-127.9-127.908-127.9c-70.528 0-127.9 57.372-127.9 127.9s57.372 127.908 127.9 127.908z" />
<glyph unicode="&#xe004;" d="M-0.292 303.886v-98.596c64.007 0 124.124-25.003 169.337-70.428 44.679-44.9 69.49-104.455 70.13-167.979l98.603-0.014c-1.366 186.055-152.455 337.017-338.070 337.017zM-0.142 478.649v-98.56c227.15 0 412.082-185.131 413.49-413.198l98.581-0.022c-1.422 282.439-230.542 511.78-512.071 511.78zM-0.363 35.271c0 0 0-0.002 0-0.002 0-37.714 30.573-68.288 68.288-68.288 37.713 0 68.287 30.572 68.288 68.286 0 37.714-30.573 68.288-68.288 68.288s-68.288-30.574-68.288-68.288z" />
<glyph unicode="&#xe005;" d="M511.678 96.993c-35.329 15.702-87.748 56.148-165.358 70.047 19.845 21.243 34.874 54.467 50.324 93.832 8.959 22.81 7.416 42.249 7.416 69.934 0 20.454 3.859 53.272-1.218 71.305-17.116 60.958-60.381 77.773-111.062 77.773-50.722 0-94.027-16.896-111.118-77.96-5.037-17.984-1.178-50.729-1.178-71.127 0-27.749-1.511-47.253 7.474-70.103 15.572-39.561 30.372-72.736 50.153-93.898-77.001-14.15-129.022-54.304-164.123-69.95-72.63-32.387-72.988-67.853-72.988-67.853v-60.234l584.934 0.073v60.161c0 0.016-0.342 35.596-73.256 68v0z" horiz-adv-x="593" />
<glyph unicode="&#xe006;" d="M510.244 280.903c-0.967 0-27.236 0-58.382 0-31.154 0-38.606 18.027-16.597 40.050 22.030 22.030 40.612 40.604 41.294 41.287 0.683 0.69 0.683 1.792 0 2.482-0.683 0.683-18.404 18.404-39.388 39.388-20.978 20.971-38.692 38.692-39.388 39.388-0.683 0.683-1.799 0.683-2.482 0-0.683-0.69-19.25-19.264-41.28-41.287s-40.043-14.564-40.043 16.583c0 31.154 0 57.415 0 58.382s-0.789 1.735-1.735 1.735c-0.988 0-26.027 0-55.701 0s-54.734 0-55.701 0c-0.96 0-1.735-0.782-1.735-1.735s0-27.228 0-58.382c0-31.147-18.020-38.606-40.043-16.583s-40.604 40.597-41.287 41.287c-0.683 0.683-1.799 0.683-2.482 0-0.676-0.69-18.404-18.411-39.388-39.388-20.978-20.999-38.692-38.692-39.388-39.388-0.683-0.69-0.683-1.792 0-2.482 0.683-0.683 19.257-19.257 41.287-41.287 22.030-22.023 14.564-40.050-16.583-40.050-31.154 0-57.444 0-58.389 0-0.967 0-1.735-0.782-1.735-1.735 0-0.96 0-26.027 0-55.694 0-29.682 0-54.741 0-55.701 0-0.967 0.782-1.735 1.735-1.735 0.96 0 27.236 0 58.382 0 31.154 0 38.606-18.020 16.597-40.043-22.030-22.030-40.604-40.597-41.287-41.28-0.683-0.69-0.683-1.792 0-2.482 0.683-0.683 18.404-18.404 39.388-39.388 20.999-20.978 38.692-38.692 39.388-39.388 0.683-0.683 1.792-0.683 2.475 0 0.683 0.69 19.264 19.264 41.287 41.287 22.037 22.030 40.050 14.564 40.050-16.583 0-31.154 0-57.422 0-58.389s0.789-1.735 1.735-1.735c0.967 0 26.027 0 55.701 0s54.727 0 55.701 0c0.96 0 1.735 0.782 1.735 1.735s0 27.236 0 58.389c0 31.147 18.020 38.606 40.043 16.59s40.604-40.597 41.287-41.287c0.683-0.683 1.799-0.683 2.482 0 0.676 0.69 18.404 18.411 39.388 39.388s38.692 38.692 39.388 39.388c0.683 0.69 0.683 1.792 0 2.482-0.683 0.683-19.25 19.25-41.28 41.28-22.023 22.023-14.556 40.043 16.59 40.043s57.408 0 58.382 0 1.735 0.746 1.735 1.713c0 0.96 0 26.027 0 55.701 0 29.682 0 54.734 0 55.694 0 0.968-0.782 1.75-1.756 1.75zM260.366 139.449c-47.396 0-85.796 38.4-85.796 85.796 0 47.374 38.407 85.796 85.796 85.796 47.374 0 85.796-38.414 85.796-85.796-0.007-47.396-38.422-85.796-85.796-85.796z" />
<glyph unicode="&#xe007;" d="M255.58 217.052l-131.527 131.527h-124.345l-0.305-0.32 256.177-256.17 256.171 256.17-0.306 0.32h-124.33z" />
<glyph unicode="&#xe008;" d="M253.426 474.186c-139.446 0-252.493-113.040-252.493-252.494s113.047-252.493 252.493-252.493 252.493 113.040 252.493 252.493c0 139.454-113.047 252.494-252.493 252.494v0zM253.426 32.323c-104.42 0-189.37 84.943-189.37 189.369 0 104.42 84.95 189.37 189.37 189.37s189.37-84.95 189.37-189.37c0-104.426-84.95-189.369-189.37-189.369v0zM375.934 165.106l-99.875 67.465v116.126c0 2.777-1.129 5.484-3.079 7.448-1.957 1.957-4.671 3.079-7.448 3.079h-27.62c-2.778 0-5.478-1.122-7.442-3.079-1.957-1.964-3.079-4.678-3.079-7.448v-137.132c0-2.778 1.122-5.485 3.079-7.449 0.793-0.792 1.711-1.452 2.714-1.95l116.372-77.95c1.753-1.157 3.78-1.774 5.835-1.774 0.744 0 1.494 0.084 2.23 0.238 2.785 0.589 5.191 2.287 6.713 4.713l14.644 23.426c2.995 4.79 1.648 11.117-3.044 14.287v0z" />
<glyph unicode="&#xe009;" d="M499.918 83.79l-189.589 327.189c-29.504 50.923-77.838 50.951-107.406 0.071l-190.251-327.338c-29.568-50.88-5.611-92.508 53.234-92.508h380.658c58.851-0.001 82.858 41.663 53.354 92.586zM258.361 48.825c-18.226 0-32.74 14.492-32.74 32.74 0 18.226 14.5 32.74 32.74 32.74 18.219 0 32.74-14.5 32.74-32.74-0.015-18.248-14.514-32.74-32.74-32.74zM281.557 134.997h-46.386l-15.609 188.885h77.639l-15.644-188.885z" />
<glyph unicode="&#xe00a;" d="M480 339.526l-107.285 107.267-287.908-287.913-51.634-158.882 158.944 51.651 287.883 287.877zM71.546 38.357l34.858 107.285 72.44-72.434-107.298-34.851z" />
<glyph unicode="&#xe00b;" d="M260.743 479.772c-0.953 0-1.65 0.057-2.588 0.028-0.782 0.014-1.771-0.050-2.56-0.050-77.020 0-139.442-63.26-139.442-139.456 0-76.21 142.059-372.309 142.059-372.309s142.002 296.363 142.002 372.309-62.45 139.478-139.471 139.478zM257.842 288.697c-35.264 0-63.879 28.594-63.879 63.872s28.601 63.886 63.879 63.886c35.285 0 63.886-28.608 63.886-63.886s-28.601-63.872-63.886-63.872z" />
<glyph unicode="&#xe00c;" d="M511.9 68.793c1.052 3.1 1.756 6.357 1.756 9.792l0.001 284.793c0 3.264-0.654 6.357-1.607 9.316l-167.31-143.261 167.16-160.64zM257.188 194.887l66.376 54.002 168.021 143.822c-2.759 0.818-5.618 1.394-8.633 1.394h-451.5c-3.022 0-5.888-0.576-8.654-1.401l168.121-143.893 66.269-53.924zM482.944 47.865c2.887 0 5.632 0.533 8.292 1.294l-168.804 162.14-65.244-53.099-65.145 53.013-168.875-162.061c2.652-0.747 5.397-1.287 8.284-1.287h451.492zM2.34 372.693c-0.953-2.958-1.607-6.052-1.607-9.316v-284.793c0-3.442 0.704-6.699 1.756-9.792l167.246 160.569-167.395 143.332z" />
<glyph unicode="&#xe00d;" d="M333.348 256.497v84.011c0 77.013-62.442 139.456-139.456 139.456-0.96 0-1.649 0.056-2.595 0.028-0.775 0.014-1.764-0.043-2.553-0.043-77.028 0-139.442-62.442-139.442-139.456v-83.996h-49.358v-288.448h384.071v288.448h-50.667zM119.055 340.493c0 38.415 31.261 69.668 69.682 69.668 1.095 0 3.406 0.057 3.406 0.057s1.166-0.043 1.749-0.043c38.415 0 69.682-31.253 69.682-69.667v-84.011h-144.512v83.996h-0.007z" horiz-adv-x="391" />
<glyph unicode="&#xe00e;" d="M256 480c-141.385 0-256-114.615-256-256s114.615-256 256-256 256 114.615 256 256-114.615 256-256 256zM408.028 71.972c-19.759-19.758-42.756-35.266-68.354-46.093-6.503-2.75-13.107-5.164-19.8-7.246v38.367c0 20.167-6.917 35-20.75 44.5 8.667 0.833 16.625 2 23.875 3.5s14.917 3.667 23 6.5 15.333 6.208 21.75 10.125 12.583 9 18.5 15.25 10.875 13.333 14.875 21.25 7.167 17.417 9.5 28.5 3.5 23.292 3.5 36.625c0 25.833-8.417 47.833-25.25 66 7.667 20 6.833 41.75-2.5 65.25l-6.25 0.75c-4.333 0.5-12.125-1.333-23.375-5.5s-23.875-11-37.875-20.5c-19.833 5.5-40.417 8.25-61.75 8.25-21.5 0-42-2.75-61.5-8.25-8.833 6-17.208 10.958-25.125 14.875s-14.25 6.583-19 8-9.167 2.292-13.25 2.625-6.708 0.417-7.875 0.25-2-0.333-2.5-0.5c-9.333-23.667-10.167-45.417-2.5-65.25-16.833-18.167-25.25-40.167-25.25-66 0-13.333 1.167-25.542 3.5-36.625s5.5-20.583 9.5-28.5 8.958-15 14.875-21.25 12.083-11.333 18.5-15.25 13.667-7.292 21.75-10.125 15.75-5 23-6.5 15.208-2.667 23.875-3.5c-13.667-9.333-20.5-24.167-20.5-44.5v-39.115c-7.549 2.247-14.99 4.902-22.3 7.994-25.597 10.827-48.594 26.335-68.353 46.093-19.758 19.759-35.267 42.756-46.093 68.354-11.199 26.479-16.878 54.631-16.878 83.674s5.679 57.195 16.879 83.675c10.827 25.597 26.335 48.594 46.093 68.353s42.756 35.267 68.353 46.093c26.48 11.2 54.632 16.879 83.675 16.879s57.195-5.679 83.675-16.879c25.598-10.827 48.595-26.335 68.354-46.093 19.758-19.758 35.266-42.756 46.093-68.353 11.199-26.48 16.878-54.632 16.878-83.675s-5.679-57.195-16.879-83.675c-10.827-25.597-26.335-48.595-46.093-68.353z" />
<glyph unicode="&#xe00f;" d="M256 480c-141.385 0-256-114.615-256-256s114.615-256 256-256 256 114.615 256 256-114.615 256-256 256zM403.121 299.456c0.146-3.254 0.221-6.528 0.221-9.819 0-100.311-76.354-215.982-215.979-215.982-42.868 0-82.768 12.568-116.363 34.107 5.938-0.704 11.981-1.063 18.108-1.063 35.565 0 68.295 12.138 94.275 32.497-33.217 0.61-61.25 22.561-70.912 52.716 4.637-0.884 9.392-1.361 14.283-1.361 6.923 0 13.629 0.928 19.999 2.662-34.726 6.976-60.893 37.656-60.893 74.434 0 0.32 0 0.639 0.008 0.955 10.235-5.685 21.939-9.1 34.382-9.494-20.37 13.611-33.77 36.846-33.77 63.184 0 13.911 3.744 26.952 10.278 38.162 37.439-45.927 93.374-76.146 156.462-79.314-1.294 5.559-1.965 11.351-1.965 17.302 0 41.92 33.99 75.906 75.909 75.906 21.833 0 41.562-9.218 55.409-23.97 17.29 3.404 33.537 9.721 48.206 18.42-5.668-17.727-17.705-32.603-33.376-41.997 15.355 1.834 29.984 5.916 43.597 11.952-10.175-15.224-23.045-28.593-37.879-39.297z" />
<glyph unicode="&#xe010;" d="M256 480c141.385 0 256-114.615 256-256 0-130.547-97.719-238.265-224-254.013v190.013h88l8 64h-96v32c0 17.673 14.327 32 32 32h64v64h-64c-53.020 0-96-42.98-96-96v-32h-48v-64h48v-190.013c-126.281 15.748-224 123.466-224 254.013 0 141.385 114.615 256 256 256z" />
<glyph unicode="&#xe011;" d="M218.503 70.919c0-37.534-23.195-67.196-88.879-69.588-38.492 21.893-70.745 53.476-93.454 91.433 11.845 29.248 48.846 51.523 91.158 51.057 12.011-0.126 23.205-2.057 33.372-5.35 27.954-19.433 50.5-31.576 56.162-53.724 1.057-4.482 1.641-9.103 1.641-13.828zM256 480c-73.97 0-140.598-31.385-187.333-81.549 18.467 10.226 40.269 16.319 63.451 16.319 33.534 0 128.219 0 128.219 0l-28.652-30.070h-33.655c23.748-13.606 36.376-41.624 36.376-72.506 0-28.346-15.708-51.19-37.89-68.529-21.64-16.901-25.746-23.983-25.746-38.367 0-12.271 25.861-30.549 37.75-39.468 41.409-31.056 49.789-50.592 49.789-89.435 0-39.363-34.468-78.552-92.933-91.871 28.174-10.669 58.713-16.524 90.624-16.524 141.385 0 256 114.615 256 256s-114.615 256-256 256zM384 288v-64h-32v64h-64v32h64v64h32v-64h64v-32h-64zM182.884 310.264c5.961-45.388-13.923-74.595-48.467-73.567-34.563 1.041-67.403 32.746-73.37 78.121-5.964 45.394 17.209 80.127 51.765 79.098 34.545-1.037 64.11-38.271 70.072-83.652zM110.443 158.966c-37.34 0-69.064-12.884-91.421-31.932-12.251 29.91-19.022 62.645-19.022 96.966 0 28.383 4.628 55.684 13.156 81.198 3.687-49.721 38.676-88.096 96.485-88.096 4.257 0 8.382 0.221 12.437 0.511-3.975-7.615-6.811-16.095-6.811-24.991 0-14.985 8.244-23.535 18.434-33.447-7.701 0-15.135-0.209-23.258-0.209z" />
<glyph unicode="&#xe012;" d="M256 480c-141.385 0-256-114.615-256-256s114.615-256 256-256 256 114.615 256 256-114.615 256-256 256zM256 16c-114.875 0-208 93.125-208 208s93.125 208 208 208 208-93.125 208-208-93.125-208-208-208zM192 336l192-112-192-112z" />
<glyph unicode="&#xe013;" d="M413.696 204.793h98.361l-97.685 92.288v149.312h-78.884v-74.781l-79.367 74.98-256.178-241.799h95.189v-206.571h113.65v146.020h94.898v-146.020h110.016z" />
<glyph unicode="&#xe014;" d="M453.382 354.745l-7.332 67.385c0 20.181-23.694 36.537-43.868 36.537h-331.485c-20.174 0-43.861-16.363-43.861-36.537l-7.339-66.126v-302.024h37.888v-31.644c0-18.212 14.763-33.003 32.989-33.003s33.002 14.799 33.002 33.003v31.644h228.558v-31.644c0-18.212 14.763-33.003 32.996-33.003s33.003 14.799 33.003 33.003v31.644h35.449v300.765zM185.165 432.42h103.765c7.78 0 14.087-6.308 14.087-14.080 0-7.78-6.307-14.088-14.087-14.088h-103.765c-7.78 0-14.087 6.308-14.087 14.088 0 7.772 6.3 14.080 14.087 14.080v0zM73.271 349.305c0 13.155 10.66 23.808 23.801 23.808h279.95c13.142 0 23.794-10.66 23.794-23.808l7.332-145.557c0-13.156-10.66-23.816-23.794-23.816h-294.62c-13.142 0-23.794 10.667-23.794 23.816l7.331 145.557zM123.376 94.855c-6.151-6.933-15.040-11.406-25.059-11.406-18.29 0-33.095 14.635-33.529 32.825-0.007 0.27-0.086 0.519-0.086 0.789 0 18.567 15.048 33.6 33.608 33.6 18.574 0 33.614-15.040 33.614-33.6 0.014-8.555-3.278-16.263-8.548-22.208v0zM378.21 83.449c-10.667 0-20.053 5.056-26.212 12.807-4.558 5.746-7.395 12.907-7.395 20.8 0 18.567 15.047 33.607 33.607 33.607 18.567 0 33.607-15.047 33.607-33.607 0-0.718-0.163-1.387-0.206-2.091-1.102-17.571-15.559-31.516-33.401-31.516v0z" horiz-adv-x="476" />
<glyph unicode="&#xe015;" d="M600.15 322.129c-29.411 20.124-57.908 23.745-72.599 23.745-3.349 0-6.457-0.101-9.476-0.241v51.41h-367.664v-203.716c0-89.716 72.719-133.304 162.403-133.304h42.858c59.652 0 111.645 3.128 139.892 51.038 4.913-0.661 13.948-1.624 25.691-1.624 15.832 0 43.829 3.329 74.873 23.666 31.436 20.144 44.983 47.469 44.983 96.944 0 41.764-11.22 72.066-40.961 92.082v0zM564.111 181.244c-15.702-10.73-34.915-13.999-42.856-13.999-1.916 0-3.701 0.070-5.426 0.131 1.354 8.453 2.246 17.076 2.246 25.941v94.407c2.939 0.191 6.087 0.311 9.476 0.311 5.896 0 25.62-3.439 39.589-13.416 13.577-10.108 16.114-25.841 16.114-44.572 0-21.008-3.851-37.863-19.143-48.803v0z" horiz-adv-x="732" />
<glyph unicode="&#xe016;" d="M256 480c-141.383 0-256-114.61-256-256s114.617-256 256-256c141.383 0 256 114.61 256 256s-114.617 256-256 256v0zM378.702 187.079l-123.57-123.179-123.562 123.179c0 0-41.202 38.528-41.202 82.389 0 61.789 40.050 82.767 82.005 82.767 41.949 0 82.759-50.333 82.759-50.333s40.811 50.333 82.767 50.333c41.955 0 82.005-20.971 82.005-82.767 0-43.861-41.202-82.389-41.202-82.389v0z" />
<glyph unicode="&#xe018;" d="M248.216 360.767c-7.709 0-13.958-6.324-13.958-14.033v-133.248c0-7.751 6.31-14.034 13.958-14.034h11.36c7.709 0 13.958 6.324 13.958 14.034v133.248c0 7.75-6.31 14.033-13.958 14.033h-11.36zM188.57 113.822c6.313-4.426 15.024-2.89 19.498 3.493l62.633 89.452c4.446 6.355 2.967 15.073-3.381 19.519l-8.809 6.166c-6.312 4.418-15.030 2.882-19.498-3.5l-62.633-89.446c-4.453-6.361-2.966-15.072 3.381-19.519l8.809-6.165zM253.426 474.186c-139.446 0-252.493-113.040-252.493-252.494s113.047-252.493 252.493-252.493 252.493 113.040 252.493 252.493c0 139.454-113.047 252.494-252.493 252.494v0zM253.426 32.323c-104.42 0-189.37 84.943-189.37 189.369 0 104.42 84.95 189.37 189.37 189.37s189.37-84.95 189.37-189.37c0-104.426-84.95-189.369-189.37-189.369v0z" />
<glyph unicode="&#xe019;" d="M262.243 346.74c-7.709 0-13.958-6.241-13.958-14.053v-147.237c0-7.761 6.31-14.053 13.958-14.053h11.361c7.708 0 13.958 6.241 13.958 14.053v147.237c0 7.761-6.311 14.053-13.958 14.053h-11.361zM170.166 220.451l91.543-50.281c6.502-3.57 14.96-1.199 18.93 5.372l5.52 9.111c3.956 6.537 1.915 14.715-4.615 18.299l-91.543 50.274c-6.502 3.577-14.96 1.206-18.937-5.358l-5.513-9.111c-3.955-6.537-1.921-14.722 4.615-18.306zM253.426 474.186c-139.446 0-252.493-113.040-252.493-252.494s113.047-252.493 252.493-252.493 252.493 113.040 252.493 252.493c0 139.454-113.047 252.494-252.493 252.494v0zM253.426 32.323c-104.42 0-189.37 84.943-189.37 189.369 0 104.42 84.95 189.37 189.37 189.37s189.37-84.95 189.37-189.37c0-104.426-84.95-189.369-189.37-189.369v0z" />
<glyph unicode="&#xe01a;" d="M263.808 310.243l78.13-78.165 84.338 84.288 85.404-85.803v249.394l-249.031 0.206 85.795-85.269zM163.499 53.461l84.65 84.651-78.129 78.158-84.345-84.281-85.391 85.81v-249.422l249.017-0.178z" />
<glyph unicode="&#xe01b;" d="M256 480c-141.383 0-256-114.61-256-256s114.617-256 256-256 256 114.61 256 256-114.617 256-256 256zM272.967 70.962c-7.602-7.332-18.084-10.766-29.881-10.724-0.092-0.007-0.185-0.007-0.27-0.007-11.236 0-21.34 3.527-28.793 10.702-7.623 7.204-11.428 17.301-11.364 28.466-0.071 11.15 3.733 21.241 11.413 28.309 7.531 7.068 17.714 10.503 29.006 10.46 11.755 0.036 22.18-3.314 29.817-10.46 7.68-7.068 11.484-17.159 11.413-28.309 0.087-11.164-3.718-21.255-11.341-28.437zM341.483 266.745c-3.989-9.906-9.024-18.503-15.125-25.685-5.888-6.912-12.373-13.042-19.463-18.347-6.379-4.793-12.224-9.906-17.493-15.282-5.056-5.212-9.358-11.207-12.942-18.14-3.193-6.094-5.042-14.542-5.042-25.436v-7.111h-59.776l-0.612 6.436c-0.484 5.020-0.74 9.806-0.74 14.386 0 9.166 0.96 17.522 3.022 24.996 2.93 10.752 7.026 20.188 12.373 28.295 5.191 7.851 11.164 14.748 17.927 20.601 6.208 5.383 11.975 10.517 17.323 15.46 5.070 4.658 9.195 9.444 12.444 14.329 2.745 4.132 4.196 9.060 4.238 15.424-0.057 8.448-2.233 14.116-6.244 18.489-3.108 3.534-10.702 6.507-23.716 6.45-3.932 0-8.192-0.42-12.779-1.301-4.636-0.924-9.294-2.219-13.945-3.89-4.729-1.707-9.237-3.662-13.518-5.881-4.366-2.24-8.199-4.523-11.513-6.798l-6.635-4.587-27.442 52.7 5.205 3.563c11.129 7.623 23.865 13.86 38.137 18.773 14.706 5.035 32.071 7.452 52.060 7.452 27.157 0.021 49.479-6.635 65.82-20.665 16.32-13.888 24.654-33.429 24.555-56.398 0.010-14.779-1.931-27.366-6.119-37.833z" />
<glyph unicode="&#xe01c;" d="M32 384h448v-96h-448zM32 256h448v-96h-448zM32 128h448v-96h-448z" />
<glyph unicode="&#xe01d;" d="M0 480v-102.4h307.2v102.4h-307.2zM0 275.2v-102.4h512v102.4h-512zM0 70.4v-102.4h204.8v102.4h-204.8zM307.2 70.4v-102.4h204.8v102.4h-204.8zM409.6 480v-102.4h102.4v102.4h-102.4z" />
<glyph unicode="&#xe01e;" d="M667.521 361.183c-86.891 0-131.769-61.446-131.769-137.244 0-75.802 43.769-137.255 131.769-137.255 87.994 0 131.764 61.453 131.764 137.255 0.003 75.798-44.876 137.244-131.764 137.244v0 0 0zM733.258 223.693v0c-0.062-48.743-16.486-88.222-65.737-88.222s-65.681 39.476-65.729 88.222v0 0.242c0.051 48.74 16.482 88.215 65.729 88.215s65.675-39.475 65.737-88.215v0-0.242c0 0 0 0.041 0 0v0 0zM278.454 90.367v379.462c0 0 50.051 7.109 53.931 7.632 4.397 0.593 10.233-2.537 10.233-8.724v-140.668c10.385 9.874 21.823 17.834 34.288 23.899 12.475 6.058 27.103 9.092 43.91 9.092 14.55 0 27.441-2.468 38.697-7.407 11.264-4.928 20.66-11.863 28.192-20.775 7.533-8.926 13.251-19.574 17.148-31.957 3.894-12.382 5.843-26.021 5.843-40.916v-169.635h-64.166v169.635c0 16.277-3.769 28.878-11.301 37.803-7.537 8.916-18.837 13.376-33.909 13.376-11.083 0-21.468-2.512-31.162-7.539-9.703-5.024-18.881-11.857-27.54-20.523v-192.755h-64.164zM1135.083 86.711c-44.159 0-71.829 25.698-71.829 73.638v142.081h-49.763c0 0 10.574 36.581 11.414 39.462 0.839 2.877 3.026 5.97 7.419 6.581s30.865 4.303 30.865 4.303l12.233 77.799c0 0 35.93 5.065 41.622 5.915 5.38 0.805 10.261-3.069 10.261-8.928v-74.786h62.934v-50.346h-62.934v-140.166c0-19.138 11.652-26.452 22.819-26.452 6.827 0 16.172 3.625 23.152 6.861 4.306 1.992 10.986 0.515 12.713-5.502 1.526-5.332 9.639-33.63 9.639-33.63-7-4.519-29.128-16.83-60.545-16.83v0 0 0zM978.227 301.59c-12.505 4.062-36.012 10.564-58.371 10.564-22.779 0-40.705-7.871-40.705-26.814 0-23.659 38.63-30.547 65.074-40.192 17.68-6.448 65.096-19.018 65.096-70.010 0-61.941-51.443-88.424-106.312-88.424-54.883 0-87.3 20.411-87.3 20.411s8.512 30.070 10.232 36.004c1.56 5.342 7.771 7.216 11.727 5.697 14.12-5.444 39.623-13.010 68.45-13.010 29.186 0 43.309 8.911 43.309 27.909 0 25.284-39.411 33.011-65.477 41.233-17.96 5.659-65.484 18.858-65.484 74.938 0 55.245 48.51 81.164 100.353 81.164 43.889 0 65.415-9.177 81.494-17.369 0 0-8.959-31.227-10.294-35.879-1.57-5.529-6.106-8.065-11.792-6.222 0 0 5.686-1.843 0 0v0 0zM253.409 351.913c0 5.976-5.106 9.396-9.976 8.84-21.534-2.468-36.896-12.601-46.835-22.035-19.516 15.29-46.606 22.591-77.010 22.591-60.958 0-108.584-29.421-108.584-93.574 0-36.826 15.676-62.204 40.572-77.143-18.489-8.75-30.803-27.321-30.803-45.578 0-30.541 24.126-40.104 24.126-40.104s-42.185-20.476-42.185-61.439c0-52.439 48.258-73.642 107.226-73.642 85 0 143.48 35.108 143.48 99.571 0 39.674-30.36 61.576-96.519 64.18-39.262 1.55-64.692 2.963-70.993 5.048-8.325 2.765-12.417 9.43-12.417 16.789 0 8.123 6.673 15.858 17.192 21.168 9.174-1.625 18.858-2.427 28.912-2.427 61.010 0 108.588 29.336 108.588 93.574 0 15.577-2.812 29.1-7.925 40.653 8.963 4.782 19.991 8.148 33.158 8.148-0.007 0-0.007 29.929-0.007 35.38 0 0 0-5.451 0 0v0 0zM85.416 90.036c0 0 32.012-1.212 63.999-2.693 35.937-1.663 47.136-9.407 47.136-28.015 0-22.734-31.23-44.848-74.874-44.848-41.428 0-62.122 14.413-62.122 38.411 0.004 13.769 7.271 29.172 25.861 37.145 0 0-18.59-7.973 0 0v0 0zM119.704 218.938c-28.878 0-51.408 15.339-51.408 48.797 0 33.463 22.551 48.801 51.408 48.801 28.862 0 51.409-15.297 51.409-48.801 0-33.503-22.524-48.797-51.409-48.797v0 0 0z" horiz-adv-x="1198" />
<glyph unicode="&#xe01f;" d="M168.741 291.899c0-0.3-0.081-1.346-0.227-3.146-0.154-1.806-0.973-3.752-2.48-5.851-1.499-2.099-3.935-3.979-7.307-5.625-3.379-1.653-8.287-2.479-14.738-2.479-8.704 0-15.492 0.49-20.363 1.463-4.879 0.98-8.477 2.326-10.803 4.052s-3.745 3.671-4.272 5.851c-0.526 2.172-0.79 4.389-0.79 6.634 0 22.353 5.625 41.516 16.874 57.49 11.25 15.975 27.041 29.060 47.368 39.264 20.319 10.196 44.697 17.7 73.121 22.498s59.816 7.198 94.164 7.198c22.798 0 46.687-0.747 71.665-2.246 24.971-1.499 50.732-4.125 77.283-7.877 7.651-2.1 12.939-5.098 15.865-8.997 2.925-3.906 4.388-8.031 4.388-12.376 0-2.852-0.417-5.851-1.236-9.004-0.826-3.145-2.063-6.071-3.716-8.769-1.653-2.707-3.862-4.916-6.634-6.642-2.779-1.726-6.041-2.589-9.794-2.589-0.599 0-1.236 0.036-1.909 0.117-0.672 0.073-1.389 0.183-2.135 0.336-9.75 1.646-20.327 3.109-31.73 4.389-11.395 1.273-23.325 2.326-35.774 3.145-12.449 0.827-25.307 1.426-38.583 1.799-13.275 0.381-26.741 0.564-40.389 0.564-4.052 0-8.887-0.22-14.512-0.673-5.624-0.446-11.066-0.973-16.318-1.573-5.998-0.6-12.222-1.353-18.673-2.253 0-1.645-0.147-3.525-0.446-5.624-0.3-2.1-0.754-5.025-1.354-8.778-0.599-3.744-1.309-8.55-2.135-14.394-0.827-5.851-1.836-13.392-3.036-22.616-1.199-9.223-2.552-20.363-4.052-33.411-1.499-13.049-3.152-28.577-4.952-46.578h124.877c3.599 0 6.371-0.709 8.324-2.136 1.953-1.426 3.379-3.225 4.279-5.398 0.899-2.179 1.419-4.505 1.572-6.977 0.146-2.473 0.227-4.835 0.227-7.088 0-7.197-1.58-12.602-4.725-16.201-3.153-3.599-6.378-5.398-9.677-5.398-1.053 0-4.498-0.11-10.35-0.336-5.851-0.227-12.975-0.491-21.372-0.79-8.404-0.3-17.627-0.637-27.677-1.010-10.050-0.38-19.763-0.717-29.14-1.016s-17.92-0.564-25.652-0.783c-7.723-0.227-13.531-0.337-17.437-0.337-2.699-18.154-5.771-35.627-9.223-52.428s-7.761-32.512-12.939-47.141c-5.171-14.621-11.286-27.933-18.337-39.936-7.051-11.995-15.448-22.272-25.198-30.822s-20.999-15.192-33.748-19.917c-12.756-4.725-27.377-7.088-43.878-7.088-3.453 0-7.578 0.227-12.376 0.681-4.798 0.446-9.823 1.199-15.075 2.245-5.251 1.053-10.459 2.443-15.638 4.162-5.171 1.726-9.786 3.869-13.838 6.415-4.045 2.552-7.351 5.514-9.897 8.886-2.552 3.38-3.825 7.242-3.825 11.594 0 2.245 0.49 5.207 1.463 8.886 0.973 3.672 2.472 7.234 4.498 10.687 2.026 3.445 4.579 6.451 7.651 8.996 3.072 2.553 6.788 3.825 11.14 3.825 4.944 0 10.159-0.826 15.638-2.472 5.471-1.653 11.132-3.489 16.983-5.515 5.852-2.026 11.85-3.862 18.001-5.507 6.151-1.653 12.376-2.48 18.673-2.48 4.952 0 9.75 1.99 14.402 5.961 4.652 3.979 9.040 9.45 13.166 16.428 4.125 6.978 8.060 15.148 11.812 24.525 3.745 9.377 7.271 19.5 10.569 30.376 3.307 10.876 6.379 22.236 9.231 34.085 2.845 11.849 5.471 23.698 7.87 35.554h-27.67c-2.552 0-5.705 0.3-9.45 0.9-3.752 0.6-7.351 1.609-10.803 3.036-3.452 1.426-6.378 3.335-8.777 5.734s-3.599 5.405-3.599 9.004c0 2.545 0.673 4.952 2.026 7.197 1.353 2.253 3.599 3.899 6.751 4.952l22.053 4.725c6.298 1.346 11.886 2.509 16.757 3.489l12.939 2.582c3.752 0.753 7.197 1.353 10.35 1.806 3.598 16.048 6.451 29.996 8.55 41.845 2.099 11.85 3.899 22.616 5.398 32.293 1.499 9.669 2.926 18.783 4.279 27.333 1.346 8.551 2.926 17.628 4.725 27.224-13.049-3.745-24.379-8.25-33.975-13.495-9.604-5.251-17.554-10.876-23.852-16.881-6.297-5.998-10.949-12.222-13.948-18.673s-4.498-12.749-4.498-18.9c0 0 0 6.151 0 0v0 0z" />
<glyph unicode="&#xe020;" d="M74.966 42.987c-99.97 99.97-99.97 262.066 0 362.037 100.002 99.97 262.067 99.97 362.068 0 99.97-99.971 99.97-262.067 0-362.037-100.001-99.985-262.066-99.985-362.068 0zM391.783 359.773c-75.001 74.985-196.565 74.985-271.535 0-75.001-74.985-75.001-196.55 0-271.535 74.97-74.986 196.534-74.986 271.535 0 74.971 74.986 74.971 196.55 0 271.535zM188.124 110.863l-45.251 45.266 67.876 67.877-67.876 67.876 45.251 45.267 67.876-67.892 67.877 67.892 45.25-45.267-67.876-67.876 67.876-67.877-45.25-45.266-67.877 67.892-67.876-67.892z" />
<glyph unicode="&#xe021;" d="M256 480c-141.376 0-256-114.624-256-256s114.624-256 256-256 256 114.624 256 256-114.624 256-256 256zM216.32 105.872l-117.792 117.808 45.248 45.248 72.528-72.56 153.872 153.872 45.248-45.248-199.104-199.12z" />
<glyph unicode="&#xe022;" d="M256 480c-141.385 0-256-114.615-256-256s114.615-256 256-256 256 114.615 256 256-114.615 256-256 256zM224 384h64v-64h-64v64zM320 64h-128v32h32v128h-32v32h96v-160h32v-32z" />
<glyph unicode="&#xe023;" d="M102.4 223.886l285.389 192.080v-115.541c0 0 329.125-25.259 329.125-268.653 0 0-41.632 99.886-200.864 118.819-26.043 3.094-65.615 6.144-128.364 6.144v-124.951l-285.286 192.102z" horiz-adv-x="819" />
<glyph unicode="&#xe024;" d="M562.904 188.144c-0.168 0.28-0.344 0.552-0.496 0.84-5.512 10.136-12.344 19.304-20.28 27.248l-108.44 108.424c-0.44 0.456-0.856 0.832-1.232 1.168-13.816 13.4-30.608 23.224-48.872 28.648 21.048-22.032 34.984-49.552 40.392-79.832 1.608-9.080 2.44-18.36 2.44-27.592 0-3.68-0.16-7.56-0.488-11.84l67.576-67.592c5.872-5.872 10.232-13.28 12.576-21.416 1.36-4.672 2.032-9.528 2.032-14.456 0-5.456-0.832-10.832-2.472-15.992-2.488-7.776-6.56-14.536-12.144-20.112l-44.064-44.064c-9.44-9.44-22.216-14.64-35.984-14.64s-26.544 5.2-35.984 14.64l-108.416 108.416c-3.904 3.904-7.144 8.512-9.608 13.72-3.264 6.84-4.984 14.544-4.984 22.248 0 5.2 0.768 10.344 2.264 15.28 0.144 0.44 0.296 0.872 0.472 1.312l0.264 0.72c0.64 1.816 1.232 3.28 1.856 4.624 0.36 0.784 0.752 1.544 1.16 2.312 0.736 1.392 1.56 2.768 2.528 4.232l0.408 0.608c0.296 0.44 0.576 0.888 0.888 1.312 1.608 2.184 3.16 4.016 4.752 5.592l16.8 16.8c-0.184 2-0.64 3.784-1.376 5.296-0.704 1.488-1.56 2.752-2.576 3.768l-42.12 42.12-19.344-19.36c-1.872-1.872-3.752-3.888-5.736-6.184-0.296-0.328-0.576-0.688-0.856-1.032l-0.624-0.768c-1.328-1.576-2.592-3.168-3.816-4.8-0.424-0.544-0.816-1.112-1.216-1.656l-0.232-0.328c-1.2-1.688-2.36-3.392-3.472-5.128l-0.296-0.456c-0.264-0.408-0.528-0.832-0.8-1.232-1.296-2.128-2.544-4.28-3.672-6.392l-0.168-0.312-0.16-0.296c-3.936-7.488-7.096-15.456-9.376-23.72-0.816-2.936-1.456-5.656-1.984-8.28-1.608-8.016-2.424-16.112-2.424-24.16 0-7.080 0.64-14.184 1.856-21.096 4.312-24.216 15.72-46.144 32.952-63.392l108.432-108.416c46.656-46.656 122.56-46.656 169.216 0l44.064 44.064c15.080 15.088 25.84 34.152 31.128 55.152 2.496 9.984 3.784 19.896 3.784 29.464 0 18.904-4.544 37.792-13.128 54.608-0.096 0.192-0.2 0.4-0.28 0.608-0.080 0.16-0.144 0.32-0.232 0.48-0.144 0.304-0.312 0.56-0.488 0.84v0zM358 332.928l-108.416 108.432c-46.656 46.64-122.56 46.64-169.216-0.016l-44.064-44.064c-15.096-15.080-25.84-34.16-31.128-55.144-2.496-9.984-3.784-19.888-3.784-29.472 0-18.904 4.544-37.784 13.128-54.608 0.112-0.184 0.2-0.408 0.28-0.608 0.080-0.16 0.144-0.328 0.232-0.488 0.144-0.264 0.296-0.528 0.472-0.816s0.344-0.56 0.496-0.856c5.528-10.144 12.36-19.296 20.296-27.232l108.424-108.424c0.456-0.472 0.856-0.84 1.248-1.168 13.816-13.392 30.592-23.216 48.856-28.64-21.032 22.032-34.968 49.544-40.36 79.832-1.624 9.048-2.456 18.344-2.456 27.592 0 3.656 0.16 7.528 0.488 11.84l-67.576 67.592c-5.872 5.872-10.232 13.28-12.576 21.424-1.36 4.672-2.048 9.512-2.048 14.44 0 5.456 0.84 10.84 2.488 16 2.488 7.784 6.56 14.544 12.144 20.112l44.064 44.064c19.512 19.512 52.472 19.512 71.968 0l108.416-108.416c3.904-3.904 7.144-8.512 9.608-13.72 3.248-6.84 4.984-14.528 4.984-22.248 0-5.2-0.768-10.344-2.264-15.28-0.144-0.456-0.296-0.888-0.472-1.344l-0.264-0.688c-0.64-1.816-1.232-3.28-1.856-4.624-0.36-0.784-0.768-1.544-1.168-2.312-0.736-1.408-1.576-2.832-2.512-4.232l-0.376-0.56c-0.296-0.472-0.592-0.92-0.92-1.36-1.608-2.184-3.16-4.016-4.736-5.592l-16.816-16.8c0.184-2 0.64-3.784 1.376-5.312 0.704-1.488 1.56-2.752 2.576-3.752l42.12-42.12 19.344 19.36c1.84 1.84 3.72 3.872 5.752 6.184 0.296 0.344 0.592 0.704 0.872 1.064l0.592 0.72c1.328 1.592 2.592 3.184 3.816 4.824 0.496 0.648 0.968 1.304 1.44 1.976 1.232 1.688 2.376 3.392 3.504 5.128l0.36 0.568 0.704 1.128c1.312 2.112 2.544 4.256 3.688 6.392l0.16 0.288 0.168 0.32c3.936 7.464 7.096 15.44 9.392 23.712 0.784 2.848 1.424 5.576 1.968 8.296 1.608 8 2.424 16.096 2.424 24.144 0 7.096-0.64 14.192-1.856 21.104-4.344 24.192-15.736 46.112-32.984 63.36v0z" horiz-adv-x="584" />
<glyph unicode="&#xe025;" d="M416.252 409.308v27.478c0 27.058-18.295 43.214-48.954 43.214-30.651 0-48.954-16.156-48.954-43.214v-27.478h-33.167v27.478c0 27.058-18.295 43.214-48.954 43.214-30.651 0-48.954-16.156-48.954-43.214v-27.478h-33.167v27.478c0 27.058-18.295 43.214-48.954 43.214-30.651 0-48.954-16.156-48.954-43.214v-27.478h-56.196v-440.163h471.838v440.163h-55.586zM39.334 149.71h84.713v-67.627h-84.713v67.626zM432.534 161.927h-84.926v73.721h84.926v-73.721zM334.505 161.927h-92.122v73.721h92.122v-73.721zM229.28 161.927h-92.122v73.721h92.122v-73.721zM124.046 161.927h-84.713v73.721h84.713v-73.721zM137.157 149.71h92.122v-67.627h-92.122v67.626zM229.28 69.874v-64.057h-92.122v64.057h92.122zM242.383 69.874h92.122v-64.057h-92.122v64.057zM242.383 82.084v67.627h92.122v-67.626h-92.122zM347.608 149.71h84.926v-67.627h-84.926v67.626zM432.534 311.495v-63.637h-84.926v63.637h84.926zM344.56 436.786c0 13.354 6.555 18.766 22.739 18.766 16.175 0 22.731-5.412 22.731-18.766v-73.5c0-13.348-6.555-18.766-22.731-18.766-16.183 0-22.739 5.418-22.739 18.766v73.501zM334.505 311.495v-63.637h-92.122v63.637h92.122zM213.493 436.786c0 13.354 6.555 18.766 22.732 18.766s22.739-5.412 22.739-18.766v-73.5c0-13.348-6.564-18.766-22.739-18.766s-22.732 5.418-22.732 18.766v73.501zM229.28 311.495v-63.637h-92.122v63.637h92.122zM82.425 436.786c0 13.354 6.555 18.766 22.731 18.766 16.183 0 22.739-5.412 22.739-18.766v-73.5c0-13.348-6.555-18.766-22.739-18.766-16.175 0-22.731 5.418-22.731 18.766v73.501zM124.046 311.495v-63.637h-84.713v63.637h84.713zM39.334 69.874h84.713v-64.057h-84.713v64.057zM347.608 5.824v64.057h84.926v-64.057h-84.926z" horiz-adv-x="473" />
<glyph unicode="&#xe026;" d="M276.225 348.204l-95.423-251.32-82.416 118.805-68.298-59.591-30.088 24.26 106.607 93.027 62.972-90.742 112.87 297.356 103.339-372.224 86.142 253.974 76.641-228.262-40.176-9.49-36.671 109.286-89.99-265.286-105.51 380.204z" horiz-adv-x="549" />
<glyph unicode="&#xe027;" d="M580.659 246.667h-301.082c-11.882 0-21.506-9.493-21.506-21.212v-148.485c0-11.719 9.624-21.212 21.506-21.212h301.082c11.882 0 21.506 9.493 21.506 21.212v148.485c0 11.72-9.624 21.212-21.506 21.212v0zM279.577 225.454h301.082v-148.485h-301.082v148.485zM193.553 246.667h-86.023c-11.882 0-21.506-9.493-21.506-21.212v-148.485c0-11.719 9.624-21.212 21.506-21.212h86.023c11.882 0 21.506 9.493 21.506 21.212v148.485c0 11.72-9.624 21.212-21.506 21.212v0zM107.529 225.454h86.023v-148.485h-86.023v148.485zM580.659 395.151h-473.129c-11.882 0-21.506-9.493-21.506-21.212v-63.637c0-11.72 9.624-21.212 21.506-21.212h473.129c11.882 0 21.506 9.493 21.506 21.212v63.637c0 11.719-9.624 21.212-21.506 21.212v0zM107.529 373.94h473.129v-63.637h-473.129v63.637zM602.164 480h-516.141c-47.42 0-86.023-38.076-86.023-84.849v-339.394c0-46.77 38.603-84.849 86.023-84.849h516.141c47.42 0 86.024 38.079 86.024 84.849v339.394c0 46.772-38.603 84.849-86.024 84.849v0zM602.164 437.576c23.657 0 43.011-19.091 43.011-42.424v-339.394c0-23.334-19.356-42.424-43.011-42.424h-516.141c-23.657 0-43.011 19.091-43.011 42.424v339.394c0 23.334 19.355 42.424 43.011 42.424h516.141z" horiz-adv-x="691" />
<glyph unicode="&#xe028;" d="M298.334 377.6l-257.098-274.249-41.236-135.351 126.935 44.002 257.065 274.221-85.666 91.377zM103.346 94.031l-14.731 15.705 221.591 236.356 14.717-15.691-221.577-236.37zM322.88 390.829l62.661 62.661 89.117-89.117-62.661-62.661-89.117 89.117z" horiz-adv-x="473" />
<glyph unicode="&#xe029;" d="M140.315 223.997l147.685 131.438v124.253l-0.36 0.313-287.64-256.003 287.64-255.997 0.36 0.313v124.246l-147.685 131.438z" horiz-adv-x="288" />
<glyph unicode="&#xe030;" d="M74.653 197.773h-20.63v36.529h21.319v-36.056c1.586 1.108 3.165 2.173 4.715 3.176l1.351 4.041 10.375 31.006c2.041 6.089 4.906 11.758 8.427 16.948h-99.427v-125.214h18.986c9.394 30.358 33.693 54.676 54.883 69.57v0zM425.7 20.322c16.171 4.27 38.386-13.688 52.387-42.228l28.096 11.675c-11.086 29.278-9.067 57.087 4.764 65.94l-28.359 45.286h-77.952l21.063-80.673zM462.201 53.020c6.471 2.696 13.93-0.272 16.683-6.59 2.752-6.346-0.277-13.674-6.748-16.37-6.457-2.675-13.93 0.286-16.683 6.611-2.745 6.346 0.277 13.661 6.748 16.349v0zM332.494 445.992c-8.135 18.787-30.265 27.536-49.43 19.567-19.164-7.962-28.103-29.647-19.968-48.413l59.129-136.506h81.913l-71.644 165.351zM512.078 128.211v125.214h-280.029l-5.291-15.813c5.091-14.287 5.305-29.856 0.377-44.624l-12.118-36.188-3.286-9.794c1.671-6.235 2.816-12.511 3.555-18.788l296.79-0.007zM458.816 234.303v-36.529h-21.305v36.529h21.305zM267.079 168.195h-21.305v66.107h21.305v-66.107zM330.994 197.773h-21.312v36.529h21.312v-36.529zM394.887 168.195h-21.291v66.107h21.291v-66.107zM176.768 147.367l0.398 1.191c-15.9 21.399-36.118 28.365-55.758 30.1-5.248 0.411-10.432 0.356-15.388 0.007-14.371-7.676-68.473-44.325-54.656-91.805 19.562-67.222-28.686-73.714-38.371-78.507-4.864-2.41 14.841-28.351 52.11-23.865 5.703 0.683 11.811 2.083 18.326 4.389 48.526 17.213 121.287 80.847 93.341 158.49v0zM146.617 249.6c-10.567-3.727-19.378-12.024-23.139-23.28l-10.389-31.034c3.136 0.014 6.343-0.070 9.614-0.313 20.174-1.344 42.582-9.049 60.622-27.997l12.11 36.188c3.79 11.285 1.721 23.043-4.53 32.204l68.402 204.215c4.010 11.996-2.631 24.89-14.876 28.819-3.363 1.079-6.791 1.373-10.098 0.982-8.683-1.045-16.398-6.862-19.314-15.555l-68.402-204.229z" horiz-adv-x="524" />
<glyph unicode="&#xe600;" d="M256 480c-141.383 0-256-114.61-256-256s114.617-256 256-256c141.383 0 256 114.61 256 256s-114.617 256-256 256v0zM361.614 63.765l-105.842 160.192-106.666-159.367c-51.285 34.503-85.099 93.070-85.099 159.395l191.722-0.014-115.364 153.173c32.185 24.363 72.249 38.848 115.634 38.848 43.363 0 83.406-14.464 115.584-38.805l-115.783-153.216 192.199 0.014c0-66.866-34.389-125.838-86.386-160.221v0z" />
<glyph unicode="&#xe601;" d="M479.872 339.923l-104.313 138.159h-238.926l-104.313-138.159h-32.128v-94.015h511.808v94.015h-32.128zM54.684 273.651h-23.402v37.814h23.402v-37.814zM97.067 273.651h-23.403v37.814h23.403v-37.814zM139.456 273.651h-23.395v37.814h23.395v-37.814zM480.668 280.625h-150.827v24.482h150.827v-24.482zM32.327 217.859h-32.128v-94.015h511.801v94.015h-479.673zM54.684 151.588h-23.402v37.814h23.402v-37.814zM97.067 151.588h-23.403v37.814h23.403v-37.814zM139.456 151.588h-23.395v37.814h23.395v-37.814zM480.668 158.562h-150.827v24.482h150.827v-24.482zM32.327 95.795h-32.128v-94.015h511.801v94.015h-479.673zM54.684 29.524h-23.402v37.814h23.402v-37.814zM97.067 29.524h-23.403v37.814h23.403v-37.814zM139.456 29.524h-23.395v37.814h23.395v-37.814zM480.668 36.498h-150.827v24.482h150.827v-24.482z" />
<glyph unicode="&#xe602;" d="M274.793 314.152l-274.245-274.231 69.037-69.036 274.231 274.238-69.023 69.029zM209.927 218.773l64.847 64.86 38.531-38.524-64.86-64.853-38.517 38.517zM401.817 393.945l22.474-23.272-69.861-67.464-22.474 23.273 69.861 67.464zM400.628 95.623l-67.45 69.846 23.277 22.478 67.45-69.846-23.277-22.478zM149.217 394.364l68.678-68.678-22.877-22.877-68.678 68.678 22.877 22.877zM258.825 451.374h32.373v-97.1h-32.373v97.1zM384.763 260.702h97.113v-32.373h-97.113v32.373z" horiz-adv-x="482" />
<glyph unicode="&#xe603;" d="M443.74 480c-75.214 0-148.364-89.378-148.364-89.378s-73.158 89.378-148.364 89.378c-75.223 0-147.012-37.255-147.012-146.964 0-77.885 73.855-146.291 73.855-146.291l221.531-218.745 221.53 218.745c0 0 73.855 68.413 73.855 146.291-0.008 109.709-71.806 146.964-147.029 146.964v0z" horiz-adv-x="591" />
<glyph unicode="&#xe604;" d="M256 480c-141.381 0-256-114.613-256-256s114.612-256 256-256c141.387 0 256 114.613 256 256s-114.62 256-256 256v0zM349.608 237.775c-0.498 24.185-2.22 46.448-4.931 66.72h85.533c9.534-20.549 15.519-43.040 17.204-66.72h-97.806zM64.593 237.775c1.686 23.679 7.67 46.171 17.204 66.72h85.974c-2.718-20.279-4.44-42.528-4.945-66.72h-98.234zM196.488 304.495h119.458c2.832-20.015 4.668-42.25 5.201-66.72h-129.868c0.541 24.455 2.369 46.705 5.208 66.72v0zM64.656 209.307h98.169c0.505-24.548 2.27-47.096 5.059-67.588h-85.276c-9.89 20.755-16.123 43.567-17.952 67.588v0zM191.286 209.307h129.846c-0.548-24.811-2.398-47.373-5.301-67.588h-119.209c-2.903 20.221-4.788 42.748-5.337 67.588v0zM349.601 209.307h97.735c-1.829-24.021-8.062-46.832-17.945-67.588h-84.878c2.796 20.499 4.575 43.019 5.087 67.588v0zM413.283 333.846h-73.458c-5.443 27.877-12.615 51.514-20.428 71.309 38.273-13.44 71.024-38.657 93.886-71.309v0zM284.618 413.821c9.649-20.136 19.261-46.392 26.241-79.976h-109.269c6.98 33.606 16.593 59.897 26.241 80.033 9.193 1.359 18.592 2.085 28.162 2.085 9.734 0 19.29-0.74 28.624-2.142v0zM193.101 405.326c-7.834-19.823-15.035-43.524-20.492-71.48h-73.899c22.975 32.794 55.911 58.089 94.391 71.48v0zM99.35 113.258h73.28c5.393-27.529 12.488-50.902 20.214-70.484-38.024 13.284-70.605 38.202-93.495 70.484v0zM227.589 34.158c-9.556 19.93-19.041 45.929-25.964 79.101h109.163c-6.916-33.115-16.358-59.135-25.892-79.036-9.428-1.423-19.076-2.177-28.895-2.177-9.649 0-19.14 0.733-28.411 2.113v0zM319.724 42.959c7.685 19.524 14.714 42.898 20.087 70.299h72.832c-22.776-32.125-55.136-56.957-92.918-70.299v0z" />
<glyph unicode="&#xe605;" d="M603.117 267.26c0.238 3.985 0.609 7.94 0.609 11.971 0 110.136-91.284 199.419-203.908 199.419-81.203 0-151.117-46.536-183.909-113.729-15.905 12.065-35.828 19.317-57.512 19.317-51.943 0-94.063-41.192-94.063-91.993 0-9.542 1.485-18.758 4.245-27.406-40.492-23.552-67.716-66.644-67.716-116.075 0-73.895 60.681-133.837 135.964-134.972v-0.084h1.608c0.19 0 0.362-0.028 0.552-0.028s0.362 0.028 0.552 0.028h106.065v54.039h-30.212c-29.137 0-53.247 14.075-64.498 37.637-11.27 23.57-6.834 50.688 11.879 72.565l119.239 139.301c15.039 17.557 36.761 27.62 59.625 27.62s44.585-10.063 59.625-27.63l119.258-139.31c18.694-21.858 23.13-48.975 11.86-72.546-11.26-23.562-35.371-37.637-64.498-37.637h-30.212v-54.039h106.256c2.456-0.13 4.883-0.363 7.367-0.363 74.549 0 134.983 59.103 134.983 132.012 0 54.961-34.343 102.037-83.164 121.902v0zM476.71 142.099l-119.24 139.292c-4.35 5.092-10.099 7.624-15.829 7.624s-11.47-2.532-15.829-7.624l-119.24-139.292c-8.7-10.175-4.731-18.488 8.834-18.488h87.323v-130.663c0-13.256 11.099-24.101 24.663-24.101h28.517c13.564 0 24.663 10.845 24.663 24.101v130.663h87.324c13.545 0 17.514 8.313 8.814 18.488v0z" horiz-adv-x="695" />
</font>
</defs>
</svg>
