<?xml version="1.0" standalone="no"?>
<!DOCTYPE svg PUBLIC "-//W3C//DTD SVG 20010904//EN"
 "http://www.w3.org/TR/2001/REC-SVG-20010904/DTD/svg10.dtd">
<svg version="1.0" xmlns="http://www.w3.org/2000/svg"
 width="500.000000pt" height="500.000000pt" viewBox="0 0 500.000000 500.000000"
 preserveAspectRatio="xMidYMid meet">
<metadata>
Created by potrace 1.11, written by Peter Selinger 2001-2013
</metadata>
<g transform="translate(0.000000,500.000000) scale(0.100000,-0.100000)"
fill="#000000" stroke="none">
<path d="M2280 4879 c-144 -18 -173 -23 -270 -45 -433 -99 -835 -339 -1145
-684 -206 -229 -395 -584 -470 -880 -26 -99 -26 -100 -41 -185 -25 -143 -29
-197 -28 -400 1 -179 14 -315 39 -425 3 -14 8 -36 11 -50 6 -33 54 -200 65
-225 4 -11 20 -51 35 -90 128 -332 380 -672 667 -898 70 -55 239 -173 259
-179 4 -2 8 -86 8 -188 2 -167 4 -190 25 -247 13 -34 34 -77 47 -95 54 -77
147 -141 243 -167 27 -7 280 -11 776 -11 646 0 741 2 789 16 124 36 223 125
269 241 28 71 29 85 30 278 l2 170 81 50 c45 28 86 55 92 60 6 6 27 22 46 35
165 116 373 337 507 540 49 73 163 277 163 290 0 3 11 28 24 56 70 146 144
431 164 634 9 100 9 377 -1 470 -57 532 -340 1066 -747 1410 -35 30 -76 65
-90 78 -13 12 -28 22 -32 22 -3 0 -14 7 -22 15 -8 9 -68 48 -133 88 -246 152
-512 252 -788 297 -33 5 -76 12 -95 16 -55 9 -408 12 -480 3z"/>
</g>
</svg>
