<?xml version="1.0" standalone="no"?>
<!DOCTYPE svg PUBLIC "-//W3C//DTD SVG 20010904//EN"
 "http://www.w3.org/TR/2001/REC-SVG-20010904/DTD/svg10.dtd">
<svg version="1.0" xmlns="http://www.w3.org/2000/svg"
 width="1500.000000pt" height="1500.000000pt" viewBox="0 0 1500.000000 1500.000000"
 preserveAspectRatio="xMidYMid meet">
<metadata>
Created by potrace 1.11, written by Peter Selinger 2001-2013
</metadata>
<g transform="translate(0.000000,1500.000000) scale(0.100000,-0.100000)"
fill="#000000" stroke="none">
<path d="M8006 13584 c-33 -13 -63 -29 -66 -35 -4 -6 -10 -9 -14 -7 -3 1 -27
-17 -53 -42 -46 -45 -97 -138 -108 -195 -3 -21 -9 -8043 -5 -8411 0 -12 12
-35 28 -52 76 -83 157 -176 160 -183 2 -5 11 -9 20 -9 8 0 13 -3 9 -6 -6 -6
17 -34 83 -104 19 -20 51 -54 69 -76 19 -21 39 -38 43 -36 4 1 7 -2 6 -7 -2
-4 33 -48 78 -97 44 -49 107 -118 139 -154 32 -36 73 -79 91 -97 18 -17 30
-33 28 -36 -3 -2 3 -10 13 -18 14 -12 16 -12 8 0 -6 10 -4 12 4 7 7 -5 10 -11
7 -14 -3 -3 -1 -11 6 -19 17 -21 4 -25 -43 -12 -24 7 -51 13 -59 14 -8 1 -22
4 -30 8 -17 7 -97 29 -120 33 -8 1 -42 10 -75 19 -33 9 -67 19 -75 21 -20 5
-91 23 -110 29 -52 15 -248 67 -262 70 -16 4 -18 -8 -18 -126 0 -71 0 -671 0
-1334 0 -663 0 -1230 0 -1260 l0 -55 522 2 523 3 0 2343 0 2343 -24 22 c-13
12 -21 15 -16 7 5 -8 -3 -4 -16 10 -35 35 -89 81 -89 75 0 -2 -47 43 -105 100
-58 57 -105 109 -105 115 0 6 -4 9 -9 5 -5 -3 -12 3 -15 12 -3 10 -22 35 -41
55 -19 20 -35 41 -35 47 0 6 -4 11 -10 11 -5 0 -10 7 -10 15 0 7 -8 18 -17 24
-14 8 -15 12 -4 25 7 9 19 16 27 16 7 0 19 8 26 19 7 10 16 18 20 17 4 0 17 7
28 17 11 9 25 17 30 17 6 0 10 5 10 10 0 6 7 10 15 10 8 0 15 5 15 10 0 6 6
10 13 10 7 0 23 10 37 23 14 12 37 28 51 35 15 8 38 25 53 38 14 14 26 22 26
19 0 -6 22 10 78 56 6 5 12 6 12 2 1 -4 10 3 20 16 11 13 20 19 20 15 0 -5 4
-4 8 3 7 11 6 6331 -1 6368 -2 11 -9 34 -16 50 -6 17 -14 36 -16 43 -2 6 -9
12 -15 12 -6 0 -8 5 -5 10 3 6 -1 13 -9 16 -9 3 -14 10 -11 14 13 21 -139 125
-195 133 -11 2 -23 6 -26 10 -4 4 -104 7 -223 6 -204 -1 -219 -2 -275 -25z"/>
<path d="M11197 13044 c-1 -1 -18 -5 -37 -8 -49 -7 -130 -44 -137 -62 -3 -7
-8 -12 -13 -9 -7 4 -50 -38 -60 -60 -3 -5 -14 -19 -25 -31 -11 -12 -29 -46
-40 -75 -19 -53 -19 -96 -20 -2241 0 -1204 2 -2188 5 -2188 3 0 17 11 32 24
14 14 28 23 30 20 3 -2 17 7 31 20 14 13 28 21 31 18 3 -3 6 0 6 6 0 7 6 12
14 12 8 0 22 10 31 23 8 12 19 22 23 21 12 -1 112 68 112 78 0 5 4 7 8 4 5 -3
18 4 30 14 12 11 25 20 29 20 5 0 21 11 36 25 15 14 27 22 27 18 1 -4 9 2 19
14 10 12 21 19 25 16 3 -3 8 2 12 11 3 9 10 13 15 10 5 -3 12 2 15 10 3 9 9
14 13 11 4 -2 18 6 32 19 13 12 29 24 34 26 26 9 64 37 58 43 -3 4 -1 7 5 7 7
0 25 -19 42 -42 16 -24 33 -48 37 -53 5 -6 9 -17 11 -25 2 -8 8 -16 13 -18 5
-2 9 -10 9 -17 0 -8 8 -21 18 -31 9 -10 15 -18 14 -18 -6 -1 22 -60 31 -67 5
-3 8 -9 8 -13 -1 -3 6 -23 15 -44 18 -41 73 -189 79 -212 40 -144 38 -139 51
-210 4 -19 9 -44 11 -55 7 -33 13 -77 16 -122 1 -24 4 -43 8 -43 3 0 5 1099 4
2443 -1 2036 -3 2447 -15 2472 -14 31 -17 39 -19 53 0 5 -10 18 -21 30 -12 12
-18 22 -15 22 3 0 -11 18 -31 40 -21 22 -44 40 -51 40 -8 0 -11 5 -8 10 6 9
-8 14 -27 11 -5 0 -8 4 -8 10 0 5 -4 7 -10 4 -5 -3 -10 -1 -10 5 0 6 -4 8 -10
5 -5 -3 -10 -2 -10 3 0 5 -6 9 -12 10 -7 0 -24 3 -38 7 -21 6 -417 14 -423 9z"/>
<path d="M9746 12503 c-1 -1 -32 -3 -69 -4 -37 -1 -70 -6 -73 -11 -3 -4 -9 -6
-14 -3 -11 7 -90 -27 -90 -38 0 -4 -4 -6 -9 -2 -5 3 -16 -4 -24 -15 -7 -11
-16 -18 -19 -15 -6 6 -71 -71 -67 -79 2 -3 -3 -11 -12 -18 -9 -7 -26 -39 -38
-70 l-21 -58 1 -2447 c0 -1347 3 -2442 6 -2435 2 6 9 10 13 7 5 -3 16 5 25 17
8 13 17 21 20 18 2 -3 14 3 25 13 11 9 23 17 26 17 5 0 66 41 74 51 3 3 37 26
76 52 40 25 79 53 87 62 9 8 20 15 26 15 6 0 11 5 11 11 0 5 4 8 9 4 5 -3 17
5 26 17 8 13 16 21 18 19 3 -7 87 51 87 60 0 5 4 8 8 6 8 -2 200 125 227 151
8 6 19 12 25 12 6 0 13 7 16 15 4 8 10 13 14 10 4 -2 15 4 25 15 10 11 24 20
31 20 7 0 20 10 29 23 8 12 18 20 21 18 3 -1 17 6 30 18 13 11 26 20 28 18 2
-1 17 7 33 19 l28 21 -1 2074 c0 1141 -4 2095 -8 2122 -5 26 -12 47 -17 47 -5
0 -6 7 -3 15 4 8 1 15 -6 15 -6 0 -9 4 -6 9 3 5 -1 12 -9 15 -8 3 -14 9 -13
13 7 24 -110 133 -134 125 -5 -1 -8 2 -8 7 0 8 -17 15 -65 27 -45 11 -97 15
-208 17 -71 1 -130 1 -131 0z m505 -120 c13 -16 12 -17 -3 -4 -17 13 -22 21
-14 21 2 0 10 -8 17 -17z"/>
<path d="M6525 12182 c-3 -3 -13 -7 -23 -8 -54 -7 -135 -45 -155 -74 -6 -9
-15 -17 -18 -16 -18 3 -94 -116 -105 -165 -3 -13 -8 -35 -11 -49 -6 -27 -10
-4860 -4 -4898 2 -15 38 -46 115 -99 61 -42 145 -100 187 -129 42 -29 80 -50
84 -46 5 4 5 2 2 -4 -3 -6 16 -23 44 -39 27 -16 49 -33 49 -38 0 -4 5 -5 10
-2 25 15 6 -23 -40 -81 -27 -35 -50 -66 -50 -68 0 -3 -19 -25 -42 -49 -24 -25
-64 -67 -89 -93 -51 -54 -133 -126 -185 -163 -19 -13 -34 -28 -34 -33 0 -4 -6
-8 -14 -8 -41 0 -39 71 -40 -2353 -1 -1277 1 -2332 3 -2344 l3 -23 518 0 c406
0 519 3 522 13 2 6 3 631 3 1387 -1 1184 -4 1375 -16 1372 -8 -2 -23 -6 -34
-8 -11 -2 -47 -11 -80 -19 -33 -9 -67 -17 -75 -19 -8 -2 -35 -9 -60 -16 -61
-16 -83 -21 -97 -22 -7 -1 -13 -4 -13 -8 0 -3 -8 -6 -17 -7 -10 0 -29 -4 -43
-8 -14 -3 -29 -7 -35 -8 -5 -2 -16 -6 -22 -10 -7 -5 -13 -6 -13 -3 0 2 -30 -4
-67 -15 -38 -11 -77 -21 -88 -23 -11 -3 -47 -11 -80 -20 -32 -9 -63 -16 -67
-16 -15 0 9 33 71 97 32 35 57 63 55 63 -2 0 14 17 36 39 22 21 37 41 33 45
-3 3 1 6 10 6 10 0 17 3 17 8 0 4 25 33 54 65 30 31 53 57 52 57 -2 0 20 24
48 54 28 30 69 74 91 98 98 108 215 236 272 297 35 36 63 73 64 81 6 73 2
6974 -4 7004 -4 21 -19 62 -32 90 -25 52 -95 136 -114 136 -6 0 -11 4 -11 8 0
9 -57 39 -105 54 -31 11 -451 19 -460 10z"/>
<path d="M3487 11914 c-1 -1 -26 -4 -56 -7 -148 -16 -281 -136 -317 -287 -9
-39 -13 -3850 -4 -3850 4 0 6 24 6 53 0 28 4 77 7 107 12 92 42 255 47 255 1
0 3 7 5 15 8 44 40 149 52 172 7 15 15 35 16 45 13 66 197 413 220 413 7 0
187 -120 304 -203 29 -20 55 -37 58 -37 3 0 15 -9 27 -20 12 -11 28 -20 35
-20 7 0 13 -4 13 -9 0 -5 25 -24 55 -42 30 -18 55 -37 55 -41 0 -4 5 -8 11 -8
6 0 28 -13 49 -30 21 -16 41 -30 45 -30 4 0 14 -8 21 -17 12 -17 13 -16 15 7
0 14 1 743 1 1620 l1 1595 -22 59 c-11 33 -33 77 -48 99 -29 42 -103 107 -122
107 -6 0 -11 5 -11 10 0 6 -3 9 -7 8 -5 -1 -21 4 -38 11 -16 7 -50 15 -75 17
-39 5 -339 11 -343 8z"/>
<path d="M12817 11184 c-1 -1 -29 -4 -63 -7 -66 -6 -144 -33 -157 -54 -5 -7
-12 -11 -17 -8 -5 3 -17 -6 -28 -20 -11 -13 -22 -21 -26 -18 -3 3 -6 -2 -6
-12 0 -10 -3 -15 -7 -12 -6 7 -48 -54 -44 -62 2 -2 -2 -7 -9 -11 -6 -4 -13
-13 -14 -21 -2 -8 -6 -21 -9 -29 -3 -8 -9 -28 -14 -45 -5 -17 -9 -2021 -9
-4755 l1 -4725 523 -3 522 -2 -3 4742 c-1 2609 -5 4750 -8 4758 -3 8 -9 24
-13 35 -14 37 -39 80 -53 88 -7 4 -13 14 -13 20 0 32 -115 104 -202 127 -31 9
-343 20 -351 14z"/>
<path d="M1830 11026 c-134 -41 -231 -140 -264 -269 -10 -42 -13 -910 -12
-4702 l1 -4650 523 -3 522 -2 1 27 c5 195 -1 9270 -6 9303 -17 110 -99 216
-210 271 l-70 34 -225 1 c-131 0 -240 -4 -260 -10z"/>
<path d="M4956 10915 c-64 -13 -145 -57 -192 -104 -36 -36 -70 -89 -66 -103 1
-5 -2 -8 -7 -8 -8 0 -16 -26 -28 -85 -2 -11 -5 -598 -6 -1304 -2 -1129 0
-1286 13 -1300 8 -10 33 -28 55 -41 22 -13 42 -27 45 -30 10 -12 261 -180 270
-180 4 0 10 -4 12 -8 3 -8 76 -60 258 -183 36 -24 67 -46 70 -49 10 -10 101
-70 106 -70 3 0 14 -9 26 -20 12 -10 25 -17 30 -14 4 3 8 1 8 -4 0 -5 28 -28
63 -50 34 -23 67 -46 74 -52 7 -5 13 -10 15 -10 7 0 1 3288 -6 3320 -12 55
-29 100 -39 100 -4 0 -6 4 -3 8 7 12 -71 99 -119 132 -40 27 -87 46 -142 57
-52 10 -385 8 -437 -2z"/>
<path d="M11903 7820 c0 -25 2 -35 4 -22 2 12 2 32 0 45 -2 12 -4 2 -4 -23z"/>
<path d="M3100 7750 c0 -5 5 -10 11 -10 5 0 7 5 4 10 -3 6 -8 10 -11 10 -2 0
-4 -4 -4 -10z"/>
<path d="M3100 7710 c0 -11 4 -20 9 -20 5 0 7 9 4 20 -3 11 -7 20 -9 20 -2 0
-4 -9 -4 -20z"/>
<path d="M11901 7684 c0 -11 3 -14 6 -6 3 7 2 16 -1 19 -3 4 -6 -2 -5 -13z"/>
<path d="M3105 4539 l0 -3139 523 0 c490 0 522 1 523 18 6 134 0 4545 -7 4551
-5 5 -31 21 -59 36 -27 15 -62 36 -77 46 -14 11 -29 19 -32 19 -3 0 -14 7 -23
15 -10 9 -58 48 -108 87 -84 67 -228 208 -285 279 -14 17 -31 37 -37 45 -7 7
-13 15 -13 18 0 6 -25 39 -52 68 -10 10 -19 21 -19 26 -1 4 -16 30 -34 58 -36
55 -133 252 -160 324 -27 70 -52 149 -70 220 -27 103 -29 114 -39 195 -4 28
-9 60 -11 71 -2 12 -6 61 -10 110 -4 49 -8 90 -9 91 -1 1 -1 -1411 -1 -3138z"/>
<path d="M11898 7605 c-1 -30 0 -55 5 -55 4 0 7 25 7 55 0 71 -7 71 -12 0z"/>
<path d="M11893 7498 c0 -19 -12 -109 -18 -138 -3 -14 -8 -40 -11 -59 -3 -19
-10 -45 -15 -59 -5 -13 -7 -27 -4 -32 3 -5 1 -11 -4 -14 -7 -5 -23 -65 -23
-86 0 -3 -3 -9 -8 -15 -6 -8 -41 -105 -45 -125 -1 -3 -16 -36 -34 -75 -18 -38
-34 -76 -34 -82 0 -7 -3 -13 -7 -13 -6 0 -30 -45 -33 -60 0 -3 -7 -11 -14 -18
-7 -7 -13 -20 -13 -28 0 -8 -5 -14 -12 -14 -6 0 -9 -3 -5 -6 3 -3 -3 -15 -13
-27 -11 -11 -17 -23 -15 -27 2 -3 -5 -13 -16 -20 -10 -8 -19 -20 -19 -27 0 -7
-5 -13 -12 -13 -6 0 -8 -3 -5 -7 4 -3 -4 -16 -18 -28 -13 -13 -21 -26 -18 -29
4 -3 1 -6 -5 -6 -7 0 -12 -7 -12 -16 0 -8 -4 -12 -10 -9 -5 3 -10 2 -10 -3 0
-5 -11 -21 -25 -36 -13 -14 -23 -26 -21 -26 2 0 -35 -38 -82 -85 -46 -47 -88
-85 -93 -85 -5 0 -9 -4 -9 -9 0 -6 -13 -18 -29 -27 -17 -10 -28 -21 -25 -26 3
-4 -2 -8 -10 -8 -9 0 -16 -5 -16 -12 0 -6 -3 -8 -7 -5 -3 4 -16 -4 -28 -18
-13 -13 -26 -21 -29 -18 -3 4 -6 1 -6 -5 0 -7 -6 -12 -14 -12 -8 0 -16 -7 -20
-15 -3 -8 -10 -15 -16 -15 -6 0 -30 -13 -53 -29 -23 -15 -58 -35 -77 -44 l-35
-17 0 -2282 0 -2283 521 -3 520 -2 0 3055 c0 1680 -3 3055 -6 3055 -4 0 -7 -6
-7 -12z"/>
<path d="M5618 5816 c-38 -13 -68 -22 -68 -20 0 2 -10 0 -23 -5 -13 -5 -40
-12 -60 -15 -20 -3 -53 -9 -73 -12 -20 -3 -46 -7 -58 -10 -31 -6 -214 -18
-266 -17 -67 0 -241 12 -270 18 -14 3 -36 7 -50 10 -77 16 -87 16 -92 -2 -3
-15 -3 -4332 1 -4356 0 -4 236 -6 523 -5 l522 3 1 2205 c0 1213 -1 2211 -3
2218 -5 15 -3 15 -84 -12z"/>
<path d="M9310 3621 l0 -2221 523 0 522 0 0 2189 c0 2184 0 2189 -20 2185 -11
-3 -36 -7 -55 -9 -19 -2 -46 -7 -60 -10 -31 -7 -207 -19 -280 -19 -66 0 -247
13 -281 20 -13 2 -41 7 -61 10 -44 7 -245 58 -270 69 -17 7 -18 -102 -18
-2214z"/>
<path d="M320 4712 c-45 -6 -120 -33 -120 -43 0 -6 -4 -8 -9 -5 -18 11 -128
-107 -157 -169 l-29 -60 0 -485 0 -485 523 0 523 -1 -3 486 -3 485 -28 59
c-49 100 -129 172 -234 207 -35 12 -396 21 -463 11z"/>
<path d="M14298 4709 c-13 -3 -31 -5 -40 -3 -10 1 -18 -2 -18 -7 0 -4 -7 -6
-15 -3 -8 4 -15 1 -15 -6 0 -6 -4 -8 -10 -5 -5 3 -10 1 -10 -5 0 -6 -4 -9 -9
-6 -8 6 -59 -28 -73 -49 -4 -5 -8 -7 -8 -2 0 4 -8 -1 -18 -10 -11 -10 -17 -21
-15 -25 2 -5 -3 -8 -12 -8 -9 0 -13 -4 -10 -10 3 -5 1 -10 -4 -10 -6 0 -11 -7
-11 -15 0 -8 -5 -15 -11 -15 -5 0 -7 -4 -4 -10 3 -5 2 -10 -3 -10 -12 0 -33
-56 -25 -64 4 -3 2 -6 -3 -6 -6 0 -11 -10 -12 -22 -4 -42 -8 -913 -4 -933 3
-20 11 -20 515 -20 l512 0 3 492 2 492 -31 58 c-49 91 -143 172 -219 188 -8 2
-15 4 -15 6 0 10 -399 18 -437 8z"/>
</g>
</svg>
